<?xml version="1.0" encoding="UTF-8" standalone="no"?>
<!DOCTYPE svg PUBLIC "-//W3C//DTD SVG 1.1//EN"
 "http://www.w3.org/Graphics/SVG/1.1/DTD/svg11.dtd">
<!-- Generated by graphviz version 2.30.1 (20150306.0020)
 -->
<!-- Title: G Pages: 1 -->
<svg width="198pt" height="1674pt"
 viewBox="0.00 0.00 198.00 1674.00" xmlns="http://www.w3.org/2000/svg" xmlns:xlink="http://www.w3.org/1999/xlink">
<g id="graph0" class="graph" transform="scale(1 1) rotate(0) translate(4 1670)">
<title>G</title>
<polygon fill="white" stroke="white" points="-4,5 -4,-1670 195,-1670 195,5 -4,5"/>
<!-- 140546167256960 -->
<g id="node1" class="node"><title>140546167256960</title>
<polygon fill="none" stroke="black" points="29.5,-1629 29.5,-1665 160.5,-1665 160.5,-1629 29.5,-1629"/>
<text text-anchor="middle" x="95" y="-1643.3" font-family="Times,serif" font-size="14.00">input_1 (InputLayer)</text>
</g>
<!-- 140546167257520 -->
<g id="node2" class="node"><title>140546167257520</title>
<polygon fill="none" stroke="black" points="0,-1555 0,-1591 190,-1591 190,-1555 0,-1555"/>
<text text-anchor="middle" x="95" y="-1569.3" font-family="Times,serif" font-size="14.00">block1_conv1 (Convolution2D)</text>
</g>
<!-- 140546167256960&#45;&gt;140546167257520 -->
<g id="edge1" class="edge"><title>140546167256960&#45;&gt;140546167257520</title>
<path fill="none" stroke="black" d="M95,-1628.94C95,-1620.81 95,-1610.88 95,-1601.7"/>
<polygon fill="black" stroke="black" points="98.5001,-1601.44 95,-1591.44 91.5001,-1601.44 98.5001,-1601.44"/>
</g>
<!-- 140544891673064 -->
<g id="node3" class="node"><title>140544891673064</title>
<polygon fill="none" stroke="black" points="0,-1481 0,-1517 190,-1517 190,-1481 0,-1481"/>
<text text-anchor="middle" x="95" y="-1495.3" font-family="Times,serif" font-size="14.00">block1_conv2 (Convolution2D)</text>
</g>
<!-- 140546167257520&#45;&gt;140544891673064 -->
<g id="edge2" class="edge"><title>140546167257520&#45;&gt;140544891673064</title>
<path fill="none" stroke="black" d="M95,-1554.94C95,-1546.81 95,-1536.88 95,-1527.7"/>
<polygon fill="black" stroke="black" points="98.5001,-1527.44 95,-1517.44 91.5001,-1527.44 98.5001,-1527.44"/>
</g>
<!-- 140544888750152 -->
<g id="node4" class="node"><title>140544888750152</title>
<polygon fill="none" stroke="black" points="4.5,-1407 4.5,-1443 185.5,-1443 185.5,-1407 4.5,-1407"/>
<text text-anchor="middle" x="95" y="-1421.3" font-family="Times,serif" font-size="14.00">block1_pool (MaxPooling2D)</text>
</g>
<!-- 140544891673064&#45;&gt;140544888750152 -->
<g id="edge3" class="edge"><title>140544891673064&#45;&gt;140544888750152</title>
<path fill="none" stroke="black" d="M95,-1480.94C95,-1472.81 95,-1462.88 95,-1453.7"/>
<polygon fill="black" stroke="black" points="98.5001,-1453.44 95,-1443.44 91.5001,-1453.44 98.5001,-1453.44"/>
</g>
<!-- 140544888751496 -->
<g id="node5" class="node"><title>140544888751496</title>
<polygon fill="none" stroke="black" points="0,-1333 0,-1369 190,-1369 190,-1333 0,-1333"/>
<text text-anchor="middle" x="95" y="-1347.3" font-family="Times,serif" font-size="14.00">block2_conv1 (Convolution2D)</text>
</g>
<!-- 140544888750152&#45;&gt;140544888751496 -->
<g id="edge4" class="edge"><title>140544888750152&#45;&gt;140544888751496</title>
<path fill="none" stroke="black" d="M95,-1406.94C95,-1398.81 95,-1388.88 95,-1379.7"/>
<polygon fill="black" stroke="black" points="98.5001,-1379.44 95,-1369.44 91.5001,-1379.44 98.5001,-1379.44"/>
</g>
<!-- 140544888545464 -->
<g id="node6" class="node"><title>140544888545464</title>
<polygon fill="none" stroke="black" points="0,-1259 0,-1295 190,-1295 190,-1259 0,-1259"/>
<text text-anchor="middle" x="95" y="-1273.3" font-family="Times,serif" font-size="14.00">block2_conv2 (Convolution2D)</text>
</g>
<!-- 140544888751496&#45;&gt;140544888545464 -->
<g id="edge5" class="edge"><title>140544888751496&#45;&gt;140544888545464</title>
<path fill="none" stroke="black" d="M95,-1332.94C95,-1324.81 95,-1314.88 95,-1305.7"/>
<polygon fill="black" stroke="black" points="98.5001,-1305.44 95,-1295.44 91.5001,-1305.44 98.5001,-1305.44"/>
</g>
<!-- 140544888042552 -->
<g id="node7" class="node"><title>140544888042552</title>
<polygon fill="none" stroke="black" points="4.5,-1185 4.5,-1221 185.5,-1221 185.5,-1185 4.5,-1185"/>
<text text-anchor="middle" x="95" y="-1199.3" font-family="Times,serif" font-size="14.00">block2_pool (MaxPooling2D)</text>
</g>
<!-- 140544888545464&#45;&gt;140544888042552 -->
<g id="edge6" class="edge"><title>140544888545464&#45;&gt;140544888042552</title>
<path fill="none" stroke="black" d="M95,-1258.94C95,-1250.81 95,-1240.88 95,-1231.7"/>
<polygon fill="black" stroke="black" points="98.5001,-1231.44 95,-1221.44 91.5001,-1231.44 98.5001,-1231.44"/>
</g>
<!-- 140544888043896 -->
<g id="node8" class="node"><title>140544888043896</title>
<polygon fill="none" stroke="black" points="0,-1111 0,-1147 190,-1147 190,-1111 0,-1111"/>
<text text-anchor="middle" x="95" y="-1125.3" font-family="Times,serif" font-size="14.00">block3_conv1 (Convolution2D)</text>
</g>
<!-- 140544888042552&#45;&gt;140544888043896 -->
<g id="edge7" class="edge"><title>140544888042552&#45;&gt;140544888043896</title>
<path fill="none" stroke="black" d="M95,-1184.94C95,-1176.81 95,-1166.88 95,-1157.7"/>
<polygon fill="black" stroke="black" points="98.5001,-1157.44 95,-1147.44 91.5001,-1157.44 98.5001,-1157.44"/>
</g>
<!-- 140544888164984 -->
<g id="node9" class="node"><title>140544888164984</title>
<polygon fill="none" stroke="black" points="0,-1037 0,-1073 190,-1073 190,-1037 0,-1037"/>
<text text-anchor="middle" x="95" y="-1051.3" font-family="Times,serif" font-size="14.00">block3_conv2 (Convolution2D)</text>
</g>
<!-- 140544888043896&#45;&gt;140544888164984 -->
<g id="edge8" class="edge"><title>140544888043896&#45;&gt;140544888164984</title>
<path fill="none" stroke="black" d="M95,-1110.94C95,-1102.81 95,-1092.88 95,-1083.7"/>
<polygon fill="black" stroke="black" points="98.5001,-1083.44 95,-1073.44 91.5001,-1083.44 98.5001,-1083.44"/>
</g>
<!-- 140544888211832 -->
<g id="node10" class="node"><title>140544888211832</title>
<polygon fill="none" stroke="black" points="0,-963 0,-999 190,-999 190,-963 0,-963"/>
<text text-anchor="middle" x="95" y="-977.3" font-family="Times,serif" font-size="14.00">block3_conv3 (Convolution2D)</text>
</g>
<!-- 140544888164984&#45;&gt;140544888211832 -->
<g id="edge9" class="edge"><title>140544888164984&#45;&gt;140544888211832</title>
<path fill="none" stroke="black" d="M95,-1036.94C95,-1028.81 95,-1018.88 95,-1009.7"/>
<polygon fill="black" stroke="black" points="98.5001,-1009.44 95,-999.441 91.5001,-1009.44 98.5001,-1009.44"/>
</g>
<!-- 140544887862328 -->
<g id="node11" class="node"><title>140544887862328</title>
<polygon fill="none" stroke="black" points="4.5,-889 4.5,-925 185.5,-925 185.5,-889 4.5,-889"/>
<text text-anchor="middle" x="95" y="-903.3" font-family="Times,serif" font-size="14.00">block3_pool (MaxPooling2D)</text>
</g>
<!-- 140544888211832&#45;&gt;140544887862328 -->
<g id="edge10" class="edge"><title>140544888211832&#45;&gt;140544887862328</title>
<path fill="none" stroke="black" d="M95,-962.937C95,-954.807 95,-944.876 95,-935.705"/>
<polygon fill="black" stroke="black" points="98.5001,-935.441 95,-925.441 91.5001,-935.441 98.5001,-935.441"/>
</g>
<!-- 140544887863672 -->
<g id="node12" class="node"><title>140544887863672</title>
<polygon fill="none" stroke="black" points="0,-815 0,-851 190,-851 190,-815 0,-815"/>
<text text-anchor="middle" x="95" y="-829.3" font-family="Times,serif" font-size="14.00">block4_conv1 (Convolution2D)</text>
</g>
<!-- 140544887862328&#45;&gt;140544887863672 -->
<g id="edge11" class="edge"><title>140544887862328&#45;&gt;140544887863672</title>
<path fill="none" stroke="black" d="M95,-888.937C95,-880.807 95,-870.876 95,-861.705"/>
<polygon fill="black" stroke="black" points="98.5001,-861.441 95,-851.441 91.5001,-861.441 98.5001,-861.441"/>
</g>
<!-- 140544887889144 -->
<g id="node13" class="node"><title>140544887889144</title>
<polygon fill="none" stroke="black" points="0,-741 0,-777 190,-777 190,-741 0,-741"/>
<text text-anchor="middle" x="95" y="-755.3" font-family="Times,serif" font-size="14.00">block4_conv2 (Convolution2D)</text>
</g>
<!-- 140544887863672&#45;&gt;140544887889144 -->
<g id="edge12" class="edge"><title>140544887863672&#45;&gt;140544887889144</title>
<path fill="none" stroke="black" d="M95,-814.937C95,-806.807 95,-796.876 95,-787.705"/>
<polygon fill="black" stroke="black" points="98.5001,-787.441 95,-777.441 91.5001,-787.441 98.5001,-787.441"/>
</g>
<!-- 140544888010680 -->
<g id="node14" class="node"><title>140544888010680</title>
<polygon fill="none" stroke="black" points="0,-667 0,-703 190,-703 190,-667 0,-667"/>
<text text-anchor="middle" x="95" y="-681.3" font-family="Times,serif" font-size="14.00">block4_conv3 (Convolution2D)</text>
</g>
<!-- 140544887889144&#45;&gt;140544888010680 -->
<g id="edge13" class="edge"><title>140544887889144&#45;&gt;140544888010680</title>
<path fill="none" stroke="black" d="M95,-740.937C95,-732.807 95,-722.876 95,-713.705"/>
<polygon fill="black" stroke="black" points="98.5001,-713.441 95,-703.441 91.5001,-713.441 98.5001,-713.441"/>
</g>
<!-- 140544887958328 -->
<g id="node15" class="node"><title>140544887958328</title>
<polygon fill="none" stroke="black" points="4.5,-593 4.5,-629 185.5,-629 185.5,-593 4.5,-593"/>
<text text-anchor="middle" x="95" y="-607.3" font-family="Times,serif" font-size="14.00">block4_pool (MaxPooling2D)</text>
</g>
<!-- 140544888010680&#45;&gt;140544887958328 -->
<g id="edge14" class="edge"><title>140544888010680&#45;&gt;140544887958328</title>
<path fill="none" stroke="black" d="M95,-666.937C95,-658.807 95,-648.876 95,-639.705"/>
<polygon fill="black" stroke="black" points="98.5001,-639.441 95,-629.441 91.5001,-639.441 98.5001,-639.441"/>
</g>
<!-- 140544887541944 -->
<g id="node16" class="node"><title>140544887541944</title>
<polygon fill="none" stroke="black" points="0,-519 0,-555 190,-555 190,-519 0,-519"/>
<text text-anchor="middle" x="95" y="-533.3" font-family="Times,serif" font-size="14.00">block5_conv1 (Convolution2D)</text>
</g>
<!-- 140544887958328&#45;&gt;140544887541944 -->
<g id="edge15" class="edge"><title>140544887958328&#45;&gt;140544887541944</title>
<path fill="none" stroke="black" d="M95,-592.937C95,-584.807 95,-574.876 95,-565.705"/>
<polygon fill="black" stroke="black" points="98.5001,-565.441 95,-555.441 91.5001,-565.441 98.5001,-565.441"/>
</g>
<!-- 140544887638840 -->
<g id="node17" class="node"><title>140544887638840</title>
<polygon fill="none" stroke="black" points="0,-445 0,-481 190,-481 190,-445 0,-445"/>
<text text-anchor="middle" x="95" y="-459.3" font-family="Times,serif" font-size="14.00">block5_conv2 (Convolution2D)</text>
</g>
<!-- 140544887541944&#45;&gt;140544887638840 -->
<g id="edge16" class="edge"><title>140544887541944&#45;&gt;140544887638840</title>
<path fill="none" stroke="black" d="M95,-518.937C95,-510.807 95,-500.876 95,-491.705"/>
<polygon fill="black" stroke="black" points="98.5001,-491.441 95,-481.441 91.5001,-491.441 98.5001,-491.441"/>
</g>
<!-- 140544887767672 -->
<g id="node18" class="node"><title>140544887767672</title>
<polygon fill="none" stroke="black" points="0,-371 0,-407 190,-407 190,-371 0,-371"/>
<text text-anchor="middle" x="95" y="-385.3" font-family="Times,serif" font-size="14.00">block5_conv3 (Convolution2D)</text>
</g>
<!-- 140544887638840&#45;&gt;140544887767672 -->
<g id="edge17" class="edge"><title>140544887638840&#45;&gt;140544887767672</title>
<path fill="none" stroke="black" d="M95,-444.937C95,-436.807 95,-426.876 95,-417.705"/>
<polygon fill="black" stroke="black" points="98.5001,-417.441 95,-407.441 91.5001,-417.441 98.5001,-417.441"/>
</g>
<!-- 140544887332088 -->
<g id="node19" class="node"><title>140544887332088</title>
<polygon fill="none" stroke="black" points="4.5,-297 4.5,-333 185.5,-333 185.5,-297 4.5,-297"/>
<text text-anchor="middle" x="95" y="-311.3" font-family="Times,serif" font-size="14.00">block5_pool (MaxPooling2D)</text>
</g>
<!-- 140544887767672&#45;&gt;140544887332088 -->
<g id="edge18" class="edge"><title>140544887767672&#45;&gt;140544887332088</title>
<path fill="none" stroke="black" d="M95,-370.937C95,-362.807 95,-352.876 95,-343.705"/>
<polygon fill="black" stroke="black" points="98.5001,-343.441 95,-333.441 91.5001,-343.441 98.5001,-343.441"/>
</g>
<!-- 140544887353976 -->
<g id="node20" class="node"><title>140544887353976</title>
<polygon fill="none" stroke="black" points="44.5,-223 44.5,-259 145.5,-259 145.5,-223 44.5,-223"/>
<text text-anchor="middle" x="95" y="-237.3" font-family="Times,serif" font-size="14.00">flatten (Flatten)</text>
</g>
<!-- 140544887332088&#45;&gt;140544887353976 -->
<g id="edge19" class="edge"><title>140544887332088&#45;&gt;140544887353976</title>
<path fill="none" stroke="black" d="M95,-296.937C95,-288.807 95,-278.876 95,-269.705"/>
<polygon fill="black" stroke="black" points="98.5001,-269.441 95,-259.441 91.5001,-269.441 98.5001,-269.441"/>
</g>
<!-- 140544886252656 -->
<g id="node21" class="node"><title>140544886252656</title>
<polygon fill="none" stroke="black" points="55,-149 55,-185 135,-185 135,-149 55,-149"/>
<text text-anchor="middle" x="95" y="-163.3" font-family="Times,serif" font-size="14.00">fc1 (Dense)</text>
</g>
<!-- 140544887353976&#45;&gt;140544886252656 -->
<g id="edge20" class="edge"><title>140544887353976&#45;&gt;140544886252656</title>
<path fill="none" stroke="black" d="M95,-222.937C95,-214.807 95,-204.876 95,-195.705"/>
<polygon fill="black" stroke="black" points="98.5001,-195.441 95,-185.441 91.5001,-195.441 98.5001,-195.441"/>
</g>
<!-- 140544886274648 -->
<g id="node22" class="node"><title>140544886274648</title>
<polygon fill="none" stroke="black" points="55,-75 55,-111 135,-111 135,-75 55,-75"/>
<text text-anchor="middle" x="95" y="-89.3" font-family="Times,serif" font-size="14.00">fc2 (Dense)</text>
</g>
<!-- 140544886252656&#45;&gt;140544886274648 -->
<g id="edge21" class="edge"><title>140544886252656&#45;&gt;140544886274648</title>
<path fill="none" stroke="black" d="M95,-148.937C95,-140.807 95,-130.876 95,-121.705"/>
<polygon fill="black" stroke="black" points="98.5001,-121.441 95,-111.441 91.5001,-121.441 98.5001,-121.441"/>
</g>
<!-- 140544886305904 -->
<g id="node23" class="node"><title>140544886305904</title>
<polygon fill="none" stroke="black" points="33.5,-1 33.5,-37 156.5,-37 156.5,-1 33.5,-1"/>
<text text-anchor="middle" x="95" y="-15.3" font-family="Times,serif" font-size="14.00">predictions (Dense)</text>
</g>
<!-- 140544886274648&#45;&gt;140544886305904 -->
<g id="edge22" class="edge"><title>140544886274648&#45;&gt;140544886305904</title>
<path fill="none" stroke="black" d="M95,-74.937C95,-66.8072 95,-56.8761 95,-47.7047"/>
<polygon fill="black" stroke="black" points="98.5001,-47.4406 95,-37.4407 91.5001,-47.4407 98.5001,-47.4406"/>
</g>
</g>
</svg>
